#!OML:ASF E:\emotionWalksFemale\Project 1\Capture day 1\Session 1\Female1.ASF
:FULLY-SPECIFIED
:DEGREES
2118
root 10.0906 15.5475 -5.1057 1.01714 3.0767 0.277496
lowerback 7.6424 -0.0637544 6.20643
upperback -1.72354 0.778301 4.13195
thorax -6.09387 0.240038 0.746328
lowerneck -4.23541 -5.96985 -5.78518
upperneck 40.1971 -12.5049 11.3038
head 16.3333 -4.78238 4.20365
rclavicle 9.88954e-015 7.95139e-015
rhumerus -36.9875 -3.22962 -75.0589
rradius 29.5832
rwrist 21.9018
rhand -10.9151 -49.8984
rfingers 7.12502
rthumb 15.1023 -79.3275
lclavicle 9.88954e-015 7.95139e-015
lhumerus -37.0493 -2.05992 92.0258
lradius 47.1572
lwrist -5.04143
lhand -7.70582 -35.2778
lfingers 7.12502
lthumb 18.1919 -6.10852
rfemur -5.65146 23.7167 29.6556
rtibia 19.5069
rfoot -29.3028 -34.7843
rtoes -0.21319
lfemur -24.8958 0.820336 -20.2366
ltibia 71.7243
lfoot -5.98913 -1.661
ltoes -6.86567
2119
root 10.0875 15.5467 -5.04252 1.07086 2.77303 0.340902
lowerback 7.57442 -0.027221 6.1581
upperback -1.68746 0.811231 4.10792
thorax -6.01544 0.259361 0.743112
lowerneck -4.41937 -5.89745 -5.71034
upperneck 40.3096 -12.3836 11.1961
head 16.4043 -4.72371 4.16077
rclavicle 6.4605e-016 1.27222e-014
rhumerus -36.721 -3.15384 -75.1755
rradius 29.026
rwrist 21.9234
rhand -11.4605 -50.3254
rfingers 7.12502
rthumb 14.5768 -79.7932
lclavicle 6.4605e-016 1.27222e-014
lhumerus -36.9716 -1.68094 91.8358
lradius 46.9211
lwrist -5.14301
lhand -7.44722 -35.1386
lfingers 7.12502
lthumb 18.4407 -5.99272
rfemur -5.49797 23.7573 29.7123
rtibia 19.6866
rfoot -29.5426 -34.4905
rtoes 0.0575284
lfemur -25.4301 0.720762 -20.3521
ltibia 71.3817
lfoot -6.90872 -1.22871
ltoes -4.77808
2120
root 10.0827 15.5402 -4.98341 1.06768 2.52072 0.224631
lowerback 7.69307 0.00274539 6.26016
upperback -1.71983 0.875864 4.12511
thorax -6.11511 0.285197 0.69685
lowerneck -4.59596 -5.92997 -5.82029
upperneck 40.4316 -12.4772 11.2924
head 16.5516 -4.76074 4.21247
rclavicle -1.03368e-014 4.77083e-015
rhumerus -36.647 -3.13815 -75.2752
rradius 28.8096
rwrist 21.8049
rhand -11.2231 -51.2575
rfingers 7.12502
rthumb 14.8056 -80.7086
lclavicle -1.03368e-014 4.77083e-015
lhumerus -36.887 -1.50667 91.6113
lradius 46.3478
lwrist -5.07306
lhand -7.18939 -35.7715
lfingers 7.12502
lthumb 18.6887 -6.64928
rfemur -5.2957 23.9531 30.0169
rtibia 19.8425
rfoot -29.7026 -34.4474
rtoes 0.762463
lfemur -26.0042 0.549578 -20.244
ltibia 70.99
lfoot -7.66622 -0.879703
ltoes -5.33461
2121
root 10.0832 15.534 -4.92331 1.02296 2.30247 0.205394
lowerback 7.79205 -0.005624 6.34209
upperback -1.72496 0.883105 4.13105
thorax -6.17641 0.28441 0.656828
lowerneck -4.13229 -5.72231 -5.87169
upperneck 40.2689 -12.191 11.4662
head 16.3239 -4.65206 4.35106
rclavicle -5.69021e-015 -1.43125e-014
rhumerus -36.7053 -3.22206 -75.2451
rradius 28.8685
rwrist 21.9175
rhand -12.148 -49.9713
rfingers 7.12502
rthumb 13.9143 -79.4857
lclavicle -5.69021e-015 -1.43125e-014
lhumerus -36.7086 -1.08898 91.3525
lradius 45.4834
lwrist -5.34028
lhand -7.56565 -37.0669
lfingers 7.12502
lthumb 18.3267 -7.91023
rfemur -5.00019 24.1257 30.2038
rtibia 19.9133
rfoot -29.6976 -34.4758
rtoes 1.35851
lfemur -26.4751 0.338917 -20.3047
ltibia 70.4978
lfoot -8.74823 -0.384558
ltoes -9.20975
2122
root 10.0851 15.5324 -4.8564 1.00714 2.06954 0.207788
lowerback 7.67608 -0.0177945 6.36623
upperback -1.63157 0.850576 4.12963
thorax -6.01161 0.272142 0.644706
lowerneck -4.46022 -5.71449 -5.77787
upperneck 40.5137 -12.1593 11.2648
head 16.5075 -4.63079 4.25154
rclavicle 6.95746e-015 1.11319e-014
rhumerus -36.6517 -3.3618 -75.2095
rradius 28.9513
rwrist 22.2428
rhand -10.8425 -51.475
rfingers 7.12502
rthumb 15.1722 -80.8988
lclavicle 6.95746e-015 1.11319e-014
lhumerus -36.3717 -0.449662 91.0456
lradius 44.7359
lwrist -5.86106
lhand -7.83296 -37.7196
lfingers 7.12502
lthumb 18.0696 -8.53894
rfemur -4.74575 24.3787 30.3611
rtibia 20.0794
rfoot -29.6459 -34.6032
rtoes 1.45856
lfemur -26.8896 0.114115 -20.417
ltibia 69.9403
lfoot -9.96578 0.160899
ltoes -13.0388
2123
root 10.0838 15.5292 -4.79144 1.06398 1.87164 0.106514
lowerback 7.57296 0.0199892 6.49591
upperback -1.616 0.898285 4.06651
thorax -5.93192 0.291601 0.500029
lowerneck -4.82349 -5.78987 -5.39821
upperneck 40.8212 -12.2704 10.9324
head 16.7222 -4.63675 4.01803
rclavicle -9.49197e-015 -3.65764e-014
rhumerus -36.5618 -3.89897 -75.161
rradius 28.7448
rwrist 23.027
rhand -9.83177 -52.1746
rfingers 7.12502
rthumb 16.1456 -81.5221
lclavicle -9.49197e-015 -3.65764e-014
lhumerus -36.1877 -0.368527 90.6847
lradius 44.2453
lwrist -5.93325
lhand -7.38968 -37.5723
lfingers 7.12502
lthumb 18.496 -8.43159
rfemur -4.6863 24.4928 30.5982
rtibia 20.3775
rfoot -29.375 -34.6827
rtoes 1.11139
lfemur -27.4382 -0.179113 -20.3555
ltibia 69.3356
lfoot -10.9314 0.433199
ltoes -12.3847
2124
root 10.0835 15.5149 -4.73477 1.12832 1.70886 0.136223
lowerback 7.53898 0.040064 6.5159
upperback -1.62193 0.920464 4.00912
thorax -5.91653 0.300859 0.425956
lowerneck -4.75456 -5.74239 -5.20829
upperneck 40.8292 -12.1973 10.8339
head 16.6719 -4.59175 3.95158
rclavicle -3.35449e-015 1.59028e-015
rhumerus -36.3684 -4.15321 -75.1583
rradius 28.3719
rwrist 23.3384
rhand -9.97806 -52.2772
rfingers 7.12502
rthumb 16.0048 -81.636
lclavicle -3.35449e-015 1.59028e-015
lhumerus -36.1528 -0.317101 90.434
lradius 43.9243
lwrist -5.86995
lhand -6.74889 -36.8848
lfingers 7.12502
lthumb 19.1123 -7.80388
rfemur -4.68885 24.2163 30.6427
rtibia 20.6174
rfoot -28.7313 -34.4862
rtoes 1.21404
lfemur -27.9423 -0.494404 -20.4282
ltibia 68.6595
lfoot -11.7905 0.624475
ltoes -10.3648
2125
root 10.0846 15.4996 -4.676 1.08568 1.53121 0.210385
lowerback 7.54997 0.0134089 6.41417
upperback -1.58518 0.876446 4.06362
thorax -5.88753 0.284908 0.544764
lowerneck -4.51304 -5.6164 -5.43676
upperneck 40.8048 -11.9987 10.9417
head 16.5978 -4.54284 4.08053
rclavicle 5.01931e-015 -1.74931e-014
rhumerus -36.3501 -3.8179 -75.1702
rradius 28.3305
rwrist 23.1168
rhand -10.6456 -51.6237
rfingers 7.12502
rthumb 15.3619 -81.0331
lclavicle 5.01931e-015 -1.74931e-014
lhumerus -36.15 0.225582 90.3443
lradius 43.5438
lwrist -6.08653
lhand -6.4727 -36.2829
lfingers 7.12502
lthumb 19.3779 -7.22844
rfemur -4.51828 23.9643 30.7056
rtibia 20.814
rfoot -28.1173 -34.3459
rtoes 1.88015
lfemur -28.2455 -0.807517 -20.5984
ltibia 67.9423
lfoot -12.6387 1.15934
ltoes -11.389
2126
root 10.0843 15.4976 -4.60937 1.02007 1.35452 0.124758
lowerback 7.60071 0.00349488 6.44354
upperback -1.59204 0.875522 4.13305
thorax -5.92499 0.283791 0.601643
lowerneck -4.51829 -5.60915 -5.61332
upperneck 41.0087 -12.0045 10.9735
head 16.7342 -4.56559 4.13929
rclavicle -6.58474e-015 5.40694e-014
rhumerus -36.6114 -3.6078 -75.2071
rradius 28.7307
rwrist 22.6358
rhand -10.6186 -50.784
rfingers 7.12502
rthumb 15.3879 -80.1913
lclavicle -6.58474e-015 5.40694e-014
lhumerus -36.1621 0.705728 90.1896
lradius 42.8655
lwrist -6.39071
lhand -6.51308 -36.3371
lfingers 7.12502
lthumb 19.3391 -7.27874
rfemur -4.27763 23.9533 30.9942
rtibia 21.0468
rfoot -27.7098 -34.4393
rtoes 1.80081
lfemur -28.6 -1.19428 -20.5781
ltibia 67.1968
lfoot -13.3266 1.59476
ltoes -10.8354
2127
root 10.0844 15.4959 -4.54438 1.00843 1.17981 -0.0305172
lowerback 7.61155 0.0283776 6.5653
upperback -1.58508 0.922234 4.15533
thorax -5.92137 0.303003 0.551499
lowerneck -4.56903 -5.65964 -5.59434
upperneck 41.0368 -12.1338 11.0618
head 16.792 -4.60544 4.15644
rclavicle -6.85807e-015 7.63333e-014
rhumerus -36.8053 -3.702 -75.2893
rradius 29.1651
rwrist 22.1922
rhand -9.88656 -51.3712
rfingers 7.12502
rthumb 16.0929 -80.723
lclavicle -6.85807e-015 7.63333e-014
lhumerus -36.0492 0.93456 89.9402
lradius 42.2027
lwrist -6.61669
lhand -6.30629 -36.3308
lfingers 7.12502
lthumb 19.5379 -7.29246
rfemur -4.09786 23.8498 31.3076
rtibia 21.1996
rfoot -27.2847 -34.3604
rtoes 1.90472
lfemur -29.042 -1.6317 -20.4568
ltibia 66.4117
lfoot -13.9174 1.72643
ltoes -10.3838
2128
root 10.0842 15.4891 -4.48714 1.0309 1.01226 -0.122801
lowerback 7.62644 0.0494957 6.61797
upperback -1.56568 0.95587 4.16424
thorax -5.90764 0.318351 0.527175
lowerneck -4.60127 -5.67146 -5.533
upperneck 40.9665 -12.1943 11.1513
head 16.7746 -4.61272 4.17158
rclavicle -8.00108e-015 2.54444e-014
rhumerus -36.7612 -4.01532 -75.2289
rradius 29.0445
rwrist 22.7926
rhand -9.13122 -52.4244
rfingers 7.12502
rthumb 16.8201 -81.7159
lclavicle -8.00108e-015 2.54444e-014
lhumerus -35.9485 1.16197 89.7305
lradius 41.9182
lwrist -6.77101
lhand -5.83239 -35.6015
lfingers 7.12502
lthumb 19.9935 -6.61008
rfemur -3.98298 23.5424 31.5012
rtibia 21.2532
rfoot -26.6544 -34.0767
rtoes 3.18452
lfemur -29.5265 -2.08907 -20.4022
ltibia 65.5728
lfoot -14.3872 1.92801
ltoes -12.0891
2129
root 10.0808 15.482 -4.42908 1.02133 0.85418 -0.0848427
lowerback 7.71408 0.0226513 6.47984
upperback -1.57502 0.916377 4.17211
thorax -5.97068 0.302324 0.617264
lowerneck -4.64514 -5.60022 -5.39587
upperneck 41.0754 -12.0665 10.9878
head 16.7987 -4.55448 4.0957
rclavicle -5.8393e-015 -3.18055e-015
rhumerus -36.5867 -4.20126 -75.1879
rradius 28.6693
rwrist 23.4872
rhand -9.09633 -52.4678
rfingers 7.12502
rthumb 16.8537 -81.7564
lclavicle -5.8393e-015 -3.18055e-015
lhumerus -35.9928 1.645 89.4961
lradius 41.6376
lwrist -7.08772
lhand -5.41306 -34.7324
lfingers 7.12502
lthumb 20.3965 -5.78362
rfemur -3.82648 23.4024 31.6274
rtibia 21.4024
rfoot -25.8382 -33.9959
rtoes 4.7023
lfemur -29.8992 -2.53149 -20.4759
ltibia 64.6317
lfoot -14.8009 2.24925
ltoes -12.4622
